<?xml version="1.0" encoding="utf-8"?>
<!-- Generator: Adobe Illustrator 21.0.0, SVG Export Plug-In . SVG Version: 6.00 Build 0)  -->
<svg version="1.1" id="Capa_1" xmlns="http://www.w3.org/2000/svg" xmlns:xlink="http://www.w3.org/1999/xlink" x="0px" y="0px"
	 viewBox="0 0 488.1 499.8" style="enable-background:new 0 0 488.1 499.8;" xml:space="preserve">
<style type="text/css">
	.st0{fill:#CAF9FF;}
	.st1{fill:#92E8EF;}
	.st2{fill:#7ED1B5;}
	.st3{fill:#5FB2A2;}
	.st4{fill:#FFFFFF;}
	.st5{fill:#F44336;}
	.st6{fill:#E7343F;}
</style>
<path class="st0" d="M416.6,73.3C370.6,26.1,309.4,0.2,244.2,0.2s-126.4,26-172.4,73.2C25.8,120.5,0.4,183.2,0.4,250
	s25.4,129.5,71.4,176.6s107.3,73.2,172.4,73.2s126.4-26,172.4-73.2s71.4-109.9,71.4-176.6S462.7,120.5,416.6,73.3z"/>
<path class="st1" d="M416.6,73.3C370.6,26.1,309.4,0.2,244.2,0.2c-6.9,0-13.8,0.3-20.6,0.9C281,5.9,334.2,31.2,375.4,73.3
	c46.1,47.2,71.4,109.9,71.4,176.6s-25.4,129.5-71.4,176.6c-41.2,42.2-94.4,67.4-151.8,72.3c6.8,0.6,13.7,0.9,20.6,0.9
	c65.1,0,126.4-26,172.4-73.2s71.4-109.9,71.4-176.6S462.7,120.5,416.6,73.3z"/>
<path class="st2" d="M483.1,201.8c-8.4-44.4-28.6-85.7-58.3-119.4C395.2,48.9,357.5,24.2,315.6,11c-2-0.6-4.1-0.3-5.8,0.8
	c-13.5,8.5-22.5,14.9-27.4,19.4c-4.2,3.8-6.2,8.7-5.9,14.3c0.5,8.4,6.6,16.9,13,23.5c-22.3,2-59.6,7.9-81.3,24.8
	c-14.2,11.1-19.5,21-15.8,29.4c5.7,12.7,29.6,13.4,79.7,2.1c40.5-9.1,62.7,1.2,67.3,9.9c1.5,2.8,0.5,4.4-0.6,5.5
	c-7.7,7.7-38.5,10.8-78.5,7.9c-19.6-1.4-27.3,7.4-37.9,19.6c-4.3,5-9.3,10.6-16.1,17.2c-14.8,14.1-14.9,26.3-12.4,34
	c4.9,15.1,23.4,25.2,52.2,28.4c31.1,3.5,46.6,18.3,48.7,46.4c0.9,11.6-2.5,17.7-6.8,25.4c-2.6,4.7-5.5,10-7.5,16.8
	c-5.6,19.2-2.1,51.6,23.3,63.6c3.7,1.8,7.5,2.5,11.4,2.5c20.5,0,41.1-22.4,50.8-32.9c1-1.1,1.8-2,2.5-2.7c5.9-6.2,7.9-19,10.6-39.4
	c1.1-8.8,2.4-18.8,4-22.6c2.9-6.8,22.6-25,35.7-35.7c1.6-1.3,2.6-3.3,2.7-5.4c0.1-2.1-0.7-4.2-2.2-5.6c-0.2-0.2-15.4-15.2-28.9-32.4
	c-19.3-24.7-21.2-36.3-19.3-39.2c3.8-5.9,7-6.9,9-7.1c10.2-1,27.7,15.5,40,28.1c12.4,12.7,32.1,13.6,58.6,2.5
	C481.9,208.7,483.7,205.2,483.1,201.8z"/>
<path class="st3" d="M483.1,201.8c-8.4-44.4-28.6-85.7-58.3-119.4C395.2,48.9,357.5,24.2,315.6,11c-2-0.6-4.1-0.3-5.8,0.8
	c-4.5,2.9-8.6,5.5-12.1,7.9C326.1,32,352.4,50,374.9,73.2c38.6,39.5,62.6,90,69.4,144.5c9.8,0.4,21.3-2.2,34.4-7.7
	C481.9,208.7,483.7,205.2,483.1,201.8z"/>
<path class="st2" d="M225.8,487.5c-5.5-10.6-34.7-63.5-69.9-68.7c-1.3-0.2-2.5-0.4-3.6-4.2c-1.2-4.4-1.3-11.1-1.4-18.9
	c-0.3-16.3-0.7-36.5-10.5-56.1c-11.7-23.1-30.8-23.6-43.4-23.9c-12.7-0.3-13.6-0.9-13.6-8.5c0-30.5-32.3-57.8-75.2-63.5
	c-2-0.3-4.1,0.4-5.6,1.8c-1.5,1.4-2.4,3.4-2.4,5.5c0.3,62,22.9,121.4,63.6,167.2c40.5,45.5,95.6,74,155.1,80.2c0.2,0,0.5,0,0.7,0
	c2.7,0,5.2-1.6,6.4-4.1C226.9,492.1,226.9,489.5,225.8,487.5z"/>
<path class="st3" d="M175.8,142.3c-2.6-6.3-6.7-10.5-12-12.6c-11-4.3-24.3,1.9-37,8c-2.7,1.3-5.4,2.6-8,3.7
	C96.3,151.2,81.2,190,90.8,213c2.6,6.3,6.7,10.6,12.2,12.8c2.9,1.2,5.9,1.6,9,1.6c9.9,0,21-5,31.8-9.9c1.9-0.9,3.8-1.7,5.7-2.5
	c10.6-4.7,19.8-16.2,25.2-31.7C179.9,168.4,180.3,153.1,175.8,142.3z"/>
<ellipse class="st4" cx="337.2" cy="102.4" rx="37" ry="37.9"/>
<path class="st5" d="M337.2,0c-55.1,0-100,45.9-100,102.4c0,34.9,16.2,72.4,48.1,111.5c23.4,28.7,46.5,47.1,47.5,47.9
	c1.3,1,2.8,1.5,4.4,1.5s3.1-0.5,4.4-1.5c1-0.8,24.1-19.2,47.5-47.9c31.9-39,48.1-76.5,48.1-111.5C437.2,45.9,392.3,0,337.2,0z
	 M374.3,102.4c0,20.9-16.6,37.9-37,37.9s-37-17-37-37.9s16.6-37.9,37-37.9C357.7,64.5,374.3,81.5,374.3,102.4z"/>
<path class="st6" d="M337.2,0c-5.6,0-11.1,0.5-16.5,1.4c47.3,8.1,83.5,50.3,83.5,101c0,34.9-16.2,72.4-48.1,111.5
	c-13.2,16.1-26.3,29-35.4,37.4c7.1,6.5,11.7,10.2,12.1,10.5c1.3,1,2.8,1.5,4.4,1.5s3.1-0.5,4.4-1.5c1-0.8,24.1-19.2,47.5-47.9
	c31.9-39,48.1-76.5,48.1-111.5C437.2,45.9,392.3,0,337.2,0z"/>
</svg>
