<?xml version="1.0" encoding="iso-8859-1"?>
<!-- Generator: Adobe Illustrator 19.0.0, SVG Export Plug-In . SVG Version: 6.00 Build 0)  -->
<svg version="1.1" id="Capa_1" xmlns="http://www.w3.org/2000/svg" xmlns:xlink="http://www.w3.org/1999/xlink" x="0px" y="0px"
	 viewBox="0 0 512 512" style="enable-background:new 0 0 512 512;" xml:space="preserve">
<path style="fill:#A8EEFC;" d="M437.086,75.227C388.777,26.918,324.548,0.313,256.229,0.313S123.681,26.918,75.372,75.227
	C27.063,123.535,0.459,187.765,0.459,256.083S27.064,388.631,75.372,436.94s112.538,74.913,180.857,74.913
	s132.548-26.605,180.857-74.913S512,324.402,512,256.083S485.395,123.536,437.086,75.227z"/>
<path style="fill:#7EE5F2;" d="M437.086,75.227C388.777,26.918,324.548,0.313,256.229,0.313c-7.269,0-14.486,0.32-21.648,0.915
	C294.735,6.237,350.62,32.057,393.79,75.226c48.309,48.309,74.914,112.538,74.914,180.857S442.099,388.631,393.79,436.94
	c-43.169,43.169-99.055,68.988-159.209,73.997c7.162,0.597,14.379,0.916,21.648,0.916c68.319,0,132.548-26.605,180.857-74.913
	S512,324.403,512,256.084S485.395,123.536,437.086,75.227z"/>
<path style="fill:#4CE166;" d="M506.79,206.773c-8.847-45.445-30.005-87.714-61.188-122.239
	c-30.989-34.31-70.597-59.591-114.54-73.111c-2.06-0.634-4.297-0.35-6.134,0.782c-14.168,8.726-23.581,15.212-28.775,19.829
	c-4.384,3.897-6.528,8.949-6.2,14.609c0.497,8.577,6.933,17.253,13.643,24.059c-23.344,2.096-62.505,8.12-85.242,25.396
	c-14.943,11.352-20.502,21.478-16.523,30.095c6.025,13.049,31.044,13.706,83.658,2.196c42.452-9.287,65.821,1.279,70.583,10.122
	c1.562,2.901,0.571,4.461-0.604,5.606c-8.122,7.909-40.423,11.089-82.302,8.097c-20.528-1.468-28.606,7.58-39.766,20.104
	c-4.552,5.108-9.712,10.897-16.899,17.605c-15.495,14.462-15.621,26.926-12.998,34.835c5.115,15.422,24.564,25.76,54.767,29.111
	c32.648,3.622,48.887,18.729,51.104,47.543c0.91,11.845-2.637,18.097-7.128,26.014c-2.718,4.792-5.799,10.224-7.884,17.173
	c-5.886,19.621-2.193,52.783,24.445,65.078c3.917,1.808,7.91,2.599,11.908,2.599c21.518,0,43.14-22.927,53.283-33.683
	c1.034-1.097,1.926-2.043,2.652-2.786c6.207-6.332,8.328-19.471,11.084-40.36c1.187-9.001,2.532-19.203,4.226-23.154
	c3.005-7.011,23.69-25.626,37.417-36.603c1.686-1.348,2.708-3.358,2.807-5.515c0.098-2.157-0.739-4.25-2.297-5.747
	c-0.16-0.154-16.181-15.59-30.291-33.197c-20.242-25.263-22.219-37.14-20.195-40.175c4.028-6.04,7.333-7.021,9.467-7.232
	c10.698-1.055,29.053,15.917,41.918,28.781c13.027,13.029,33.713,13.883,61.477,2.539C505.58,213.79,507.474,210.286,506.79,206.773
	z"/>
<path style="fill:#44C868;" d="M506.79,206.773c-8.847-45.445-30.005-87.714-61.188-122.239
	c-30.989-34.31-70.597-59.591-114.54-73.111c-2.06-0.634-4.297-0.35-6.134,0.782c-4.773,2.94-8.995,5.62-12.708,8.065
	c29.925,12.672,57.426,31.117,81.098,54.79c40.466,40.466,65.69,92.104,72.819,147.957c10.242,0.397,22.309-2.226,36.131-7.872
	C505.58,213.79,507.474,210.286,506.79,206.773z"/>
<path style="fill:#4CE166;" d="M236.83,499.286c-5.767-10.828-36.359-65.032-73.364-70.378c-1.376-0.199-2.675-0.387-3.753-4.306
	c-1.24-4.514-1.367-11.388-1.514-19.346c-0.308-16.666-0.691-37.407-11.056-57.396c-12.265-23.653-32.294-24.172-45.547-24.516
	c-13.285-0.344-14.215-0.912-14.215-8.678c0-31.244-33.928-59.216-78.919-65.066c-2.142-0.279-4.304,0.382-5.925,1.812
	c-1.622,1.431-2.545,3.492-2.536,5.654c0.28,63.501,23.989,124.293,66.761,171.18c42.489,46.578,100.285,75.738,162.739,82.11
	c0.256,0.026,0.511,0.039,0.764,0.039c2.841,0,5.469-1.615,6.734-4.207C238.083,503.96,237.984,501.387,236.83,499.286z"/>
<path style="fill:#49C158;" d="M184.407,145.855c-2.757-6.437-6.994-10.79-12.589-12.936c-11.572-4.437-25.443,1.983-38.855,8.191
	c-2.797,1.294-5.69,2.633-8.431,3.808c-23.47,10.055-39.335,49.771-29.268,73.269c2.752,6.425,7.059,10.826,12.8,13.082
	c3,1.179,6.16,1.687,9.437,1.687c10.429-0.001,22.03-5.143,33.337-10.157c2.009-0.89,3.997-1.772,5.942-2.605
	c11.13-4.768,20.766-16.583,26.437-32.415C188.678,172.536,189.122,156.864,184.407,145.855z"/>
<circle style="fill:#FFFFFF;" cx="353.777" cy="104.997" r="38.831"/>
<path style="fill:#FF4A4A;" d="M353.78,0.146c-57.816,0-104.853,47.037-104.853,104.853c0,35.764,16.967,74.162,50.428,114.125
	c24.576,29.352,48.819,48.23,49.838,49.02c1.351,1.044,2.969,1.567,4.587,1.567c1.618,0,3.236-0.523,4.587-1.567
	c1.019-0.79,25.262-19.667,49.838-49.02c33.46-39.964,50.427-78.361,50.427-114.125C458.632,47.183,411.596,0.146,353.78,0.146z
	 M392.611,104.999c0,21.445-17.386,38.831-38.831,38.831c-21.445,0-38.831-17.386-38.831-38.831s17.385-38.831,38.831-38.831
	C375.225,66.168,392.611,83.553,392.611,104.999z"/>
<path style="fill:#E7343F;" d="M353.78,0.146c-5.894,0-11.674,0.497-17.307,1.436c49.609,8.275,87.545,51.495,87.545,103.417
	c0,35.764-16.967,74.162-50.427,114.125c-13.843,16.533-27.578,29.742-37.119,38.268c7.398,6.611,12.274,10.408,12.719,10.753
	c1.351,1.044,2.969,1.567,4.587,1.567c1.618,0,3.236-0.523,4.587-1.567c1.019-0.79,25.262-19.667,49.838-49.02
	c33.46-39.964,50.427-78.361,50.427-114.125C458.632,47.183,411.596,0.146,353.78,0.146z"/>
<g>
</g>
<g>
</g>
<g>
</g>
<g>
</g>
<g>
</g>
<g>
</g>
<g>
</g>
<g>
</g>
<g>
</g>
<g>
</g>
<g>
</g>
<g>
</g>
<g>
</g>
<g>
</g>
<g>
</g>
</svg>
