<?xml version="1.0" encoding="iso-8859-1"?>
<!-- Generator: Adobe Illustrator 19.0.0, SVG Export Plug-In . SVG Version: 6.00 Build 0)  -->
<svg version="1.1" id="Layer_1" xmlns="http://www.w3.org/2000/svg" xmlns:xlink="http://www.w3.org/1999/xlink" x="0px" y="0px"
	 viewBox="0 0 512 512" style="enable-background:new 0 0 512 512;" xml:space="preserve">
<g>
	<g>
		<path d="M510.021,343.885L423.229,54.542c-7.271-24.219-33.875-38.5-58-31.25L255.221,56.297
			c-3.646-19.854-21.004-34.964-41.888-34.964c-23.521,0-42.667,19.135-42.667,42.667h-128C19.146,64,0,83.135,0,106.667v320
			c0,23.531,19.146,42.667,42.667,42.667h94.344c8.397,13.083,22.823,21.333,39.052,21.333c4.542,0,9.042-0.656,13.375-1.958
			l289.354-86.813C498.646,395.948,512,378.021,512,357.271C512,352.687,511.333,348.167,510.021,343.885z M213.333,42.667
			c11.257,0,20.255,8.833,21.04,19.884L229.544,64H192C192,52.24,201.563,42.667,213.333,42.667z M234.667,84.738v53.928
			c0,5.885-4.792,10.667-10.667,10.667s-10.667-4.781-10.667-10.667V91.139L234.667,84.738z M42.667,448
			c-11.771,0-21.333-9.573-21.333-21.333v-320c0-11.76,9.563-21.333,21.333-21.333h115.772l-82.564,24.771
			c-19.854,5.948-33.208,23.875-33.208,44.625c0,4.583,0.667,9.104,1.979,13.385L128.6,448H42.667z M472.667,381.458
			l-289.354,86.813c-13.125,3.948-27.5-3.823-31.458-16.938L65.063,161.948c-0.708-2.313-1.063-4.74-1.063-7.219
			c0-11.25,7.229-20.969,18-24.188l110-33.003v41.128c0,17.646,14.354,32,32,32s32-14.354,32-32V78.339l115.354-34.609
			c2.354-0.708,4.792-1.063,7.25-1.063c11.25,0,20.958,7.24,24.208,18l86.792,289.385c0.708,2.313,1.063,4.74,1.063,7.219
			C490.667,368.521,483.438,378.24,472.667,381.458z"/>
	</g>
</g>
<g>
</g>
<g>
</g>
<g>
</g>
<g>
</g>
<g>
</g>
<g>
</g>
<g>
</g>
<g>
</g>
<g>
</g>
<g>
</g>
<g>
</g>
<g>
</g>
<g>
</g>
<g>
</g>
<g>
</g>
</svg>
