<?xml version="1.0" encoding="utf-8"?>
<!-- Generator: Adobe Illustrator 21.0.0, SVG Export Plug-In . SVG Version: 6.00 Build 0)  -->
<svg version="1.1" id="Layer_1" xmlns="http://www.w3.org/2000/svg" xmlns:xlink="http://www.w3.org/1999/xlink" x="0px" y="0px"
	 viewBox="0 0 492 492" style="enable-background:new 0 0 492 492;" xml:space="preserve">
<style type="text/css">
	.st0{fill:#FA9826;}
	.st1{fill:#EF8114;}
	.st2{fill:#F9BD28;}
</style>
<circle class="st0" cx="73.7" cy="418.3" r="69.7"/>
<g>
	<path class="st1" d="M0,162.7v93c136,0,236.4,100.4,236.4,236.4h93C329.3,308,184,162.7,0,162.7z"/>
	<path class="st1" d="M8,0v92.9C224,92.9,399.1,268,399.1,492H492C492,220,272,0,8,0z"/>
</g>
<g>
	<circle class="st0" cx="73.7" cy="418.3" r="69.7"/>
	<path class="st0" d="M0,162.7v93c120,0,221.8,90,234.7,206c31.9-9.2,61.2-21.5,88.2-35.7C294.2,275.8,160,162.7,0,162.7z"/>
	<path class="st0" d="M456.2,306.8C383.6,126.6,208,0,8,0v92.9c176,0,331.8,122.3,376.9,290.9C414.8,359.7,439.9,337.2,456.2,306.8z
		"/>
	<path class="st0" d="M73.7,348.6C35.2,348.6,4,379.8,4,418.3c0,22.4,10.6,42.2,26.9,55c37.7-13.6,75.7-33,112.4-58
		C141.7,378.2,111.2,348.6,73.7,348.6z"/>
	<path class="st0" d="M0,162.7v93c88,0,161.7,45.2,202.4,112.6c7.9-7.1,15.4-14.4,23.1-22c15.2-15.2,28.8-32.1,41.8-48.2
		C208.2,215.4,112,162.7,0,162.7z"/>
	<path class="st0" d="M8,0v92.9c120,0,232.2,57.2,304.8,146.5c18.2-29.9,33.1-57.2,43.8-87.6C267.8,60.2,144,0,8,0z"/>
</g>
<g>
	<path class="st2" d="M106.5,356.8c-9.8-5.2-20.9-8.2-32.8-8.2C35.2,348.6,4,379.8,4,418.3c0,13.4,3.8,25.8,10.4,36.5
		C49.6,431.7,81,398.2,106.5,356.8z"/>
	<path class="st2" d="M163.3,205C115.8,177.7,64,162.7,0,162.7v93c54.9,0.5,96,16.9,134.2,41.5C146.2,268.6,156.5,237.6,163.3,205z"
		/>
	<path class="st2" d="M8,92.9c56,0,117.5,14.6,169.4,39.8c1.1-14.7,0.8-30.2,0.8-45.4c0-19.2,0.5-38-1.3-56.5C123.9,10.9,64,0,8,0
		V92.9z"/>
</g>
</svg>
