<?xml version="1.0" encoding="utf-8"?>
<!-- Generator: Adobe Illustrator 21.0.0, SVG Export Plug-In . SVG Version: 6.00 Build 0)  -->
<svg version="1.1" id="Capa_1" xmlns="http://www.w3.org/2000/svg" xmlns:xlink="http://www.w3.org/1999/xlink" x="0px" y="0px"
	 viewBox="0 0 512 512" style="enable-background:new 0 0 512 512;" xml:space="preserve">
<style type="text/css">
	.st0{fill:#CAF9FF;}
	.st1{fill:#92E8EF;}
	.st2{fill:#7ED1B5;}
	.st3{fill:#5FB2A2;}
	.st4{fill:#FFFFFF;}
	.st5{fill:#F44336;}
	.st6{fill:#E7343F;}
</style>
<path class="st0" d="M437.1,75.2C388.8,26.9,324.5,0.3,256.2,0.3S123.7,26.9,75.4,75.2C27.1,123.5,0.5,187.8,0.5,256.1
	s26.6,132.5,74.9,180.9s112.5,74.9,180.9,74.9s132.5-26.6,180.9-74.9S512,324.4,512,256.1S485.4,123.5,437.1,75.2z"/>
<path class="st1" d="M437.1,75.2C388.8,26.9,324.5,0.3,256.2,0.3c-7.3,0-14.5,0.3-21.6,0.9c60.2,5,116,30.8,159.2,74
	c48.3,48.3,74.9,112.5,74.9,180.9s-26.6,132.5-74.9,180.9c-43.2,43.2-99.1,69-159.2,74c7.2,0.6,14.4,0.9,21.6,0.9
	c68.3,0,132.5-26.6,180.9-74.9S512,324.4,512,256.1S485.4,123.5,437.1,75.2z"/>
<path class="st2" d="M506.8,206.8c-8.8-45.4-30-87.7-61.2-122.2c-31-34.3-70.6-59.6-114.5-73.1c-2.1-0.6-4.3-0.4-6.1,0.8
	c-14.2,8.7-23.6,15.2-28.8,19.8c-4.4,3.9-6.5,8.9-6.2,14.6c0.5,8.6,6.9,17.3,13.6,24.1c-23.3,2.1-62.5,8.1-85.2,25.4
	c-14.9,11.4-20.5,21.5-16.5,30.1c6,13,31,13.7,83.7,2.2c42.5-9.3,65.8,1.3,70.6,10.1c1.6,2.9,0.6,4.5-0.6,5.6
	c-8.1,7.9-40.4,11.1-82.3,8.1c-20.5-1.5-28.6,7.6-39.8,20.1c-4.6,5.1-9.7,10.9-16.9,17.6c-15.5,14.5-15.6,26.9-13,34.8
	c5.1,15.4,24.6,25.8,54.8,29.1c32.6,3.6,48.9,18.7,51.1,47.5c0.9,11.8-2.6,18.1-7.1,26c-2.7,4.8-5.8,10.2-7.9,17.2
	c-5.9,19.6-2.2,52.8,24.4,65.1c3.9,1.8,7.9,2.6,11.9,2.6c21.5,0,43.1-22.9,53.3-33.7c1-1.1,1.9-2,2.7-2.8
	c6.2-6.3,8.3-19.5,11.1-40.4c1.2-9,2.5-19.2,4.2-23.2c3-7,23.7-25.6,37.4-36.6c1.7-1.3,2.7-3.4,2.8-5.5c0.1-2.2-0.7-4.2-2.3-5.7
	c-0.2-0.2-16.2-15.6-30.3-33.2c-20.2-25.3-22.2-37.1-20.2-40.2c4-6,7.3-7,9.5-7.2c10.7-1.1,29.1,15.9,41.9,28.8
	c13,13,33.7,13.9,61.5,2.5C505.6,213.8,507.5,210.3,506.8,206.8z"/>
<path class="st3" d="M506.8,206.8c-8.8-45.4-30-87.7-61.2-122.2c-31-34.3-70.6-59.6-114.5-73.1c-2.1-0.6-4.3-0.4-6.1,0.8
	c-4.8,2.9-9,5.6-12.7,8.1c29.9,12.7,57.4,31.1,81.1,54.8c40.5,40.5,65.7,92.1,72.8,148c10.2,0.4,22.3-2.2,36.1-7.9
	C505.6,213.8,507.5,210.3,506.8,206.8z"/>
<path class="st2" d="M236.8,499.3c-5.8-10.8-36.4-65-73.4-70.4c-1.4-0.2-2.7-0.4-3.8-4.3c-1.2-4.5-1.4-11.4-1.5-19.3
	c-0.3-16.7-0.7-37.4-11.1-57.4c-12.3-23.7-32.3-24.2-45.5-24.5c-13.3-0.3-14.2-0.9-14.2-8.7c0-31.2-33.9-59.2-78.9-65.1
	c-2.1-0.3-4.3,0.4-5.9,1.8c-1.6,1.4-2.5,3.5-2.5,5.7c0.3,63.5,24,124.3,66.8,171.2c42.5,46.6,100.3,75.7,162.7,82.1
	c0.3,0,0.5,0,0.8,0c2.8,0,5.5-1.6,6.7-4.2C238.1,504,238,501.4,236.8,499.3z"/>
<path class="st3" d="M184.4,145.9c-2.8-6.4-7-10.8-12.6-12.9c-11.6-4.4-25.4,2-38.9,8.2c-2.8,1.3-5.7,2.6-8.4,3.8
	c-23.5,10.1-39.3,49.8-29.3,73.3c2.8,6.4,7.1,10.8,12.8,13.1c3,1.2,6.2,1.7,9.4,1.7c10.4,0,22-5.1,33.3-10.2c2-0.9,4-1.8,5.9-2.6
	c11.1-4.8,20.8-16.6,26.4-32.4C188.7,172.5,189.1,156.9,184.4,145.9z"/>
<circle class="st4" cx="353.8" cy="105" r="38.8"/>
<path class="st5" d="M353.8,0.1c-57.8,0-104.9,47-104.9,104.9c0,35.8,17,74.2,50.4,114.1c24.6,29.4,48.8,48.2,49.8,49
	c1.4,1,3,1.6,4.6,1.6s3.2-0.5,4.6-1.6c1-0.8,25.3-19.7,49.8-49c33.5-40,50.4-78.4,50.4-114.1C458.6,47.2,411.6,0.1,353.8,0.1z
	 M392.6,105c0,21.4-17.4,38.8-38.8,38.8s-38.8-17.4-38.8-38.8s17.4-38.8,38.8-38.8C375.2,66.2,392.6,83.6,392.6,105z"/>
<path class="st6" d="M353.8,0.1c-5.9,0-11.7,0.5-17.3,1.4C386.1,9.9,424,53.1,424,105c0,35.8-17,74.2-50.4,114.1
	c-13.8,16.5-27.6,29.7-37.1,38.3c7.4,6.6,12.3,10.4,12.7,10.8c1.4,1,3,1.6,4.6,1.6s3.2-0.5,4.6-1.6c1-0.8,25.3-19.7,49.8-49
	c33.5-40,50.4-78.4,50.4-114.1C458.6,47.2,411.6,0.1,353.8,0.1z"/>
</svg>
