<?xml version="1.0" encoding="utf-8"?>
<!-- Generator: Adobe Illustrator 21.0.0, SVG Export Plug-In . SVG Version: 6.00 Build 0)  -->
<svg version="1.1" id="Capa_1" xmlns="http://www.w3.org/2000/svg" xmlns:xlink="http://www.w3.org/1999/xlink" x="0px" y="0px"
	 viewBox="0 0 512 512" style="enable-background:new 0 0 512 512;" xml:space="preserve">
<style type="text/css">
	.st0{fill:#CAF9FF;}
	.st1{fill:#92E8EF;}
	.st2{fill:#7ED1B5;}
	.st3{fill:#5FB2A2;}
	.st4{fill:#FFFFFF;}
	.st5{fill:#F44336;}
	.st6{fill:#E7343F;}
</style>
<path class="st0" d="M435.2,77.1C387.4,29.3,323.8,3,256.2,3s-131.2,26.3-179,74.1c-47.8,47.8-74.1,111.4-74.1,179
	s26.3,131.2,74.1,179s111.4,74.1,179,74.1s131.2-26.3,179-74.1s74.1-111.4,74.1-179S483,124.9,435.2,77.1z"/>
<path class="st1" d="M435.2,77.1C387.4,29.3,323.8,3,256.2,3c-7.2,0-14.3,0.3-21.4,0.9c59.5,5,114.8,30.5,157.5,73.2
	c47.8,47.8,74.1,111.4,74.1,179s-26.3,131.2-74.1,179c-42.7,42.7-98,68.3-157.5,73.2c7.1,0.6,14.2,0.9,21.4,0.9
	c67.6,0,131.2-26.3,179-74.1s74.1-111.4,74.1-179S483,124.9,435.2,77.1z"/>
<path class="st2" d="M504.2,207.3c-8.8-45-29.7-86.8-60.5-121c-30.7-33.9-69.9-59-113.3-72.3c-2-0.6-4.3-0.3-6.1,0.8
	c-14,8.6-23.3,15.1-28.5,19.6c-4.3,3.9-6.5,8.9-6.1,14.5c0.5,8.5,6.9,17.1,13.5,23.8c-23.1,2.1-61.8,8-84.3,25.1
	C204,109,198.5,119,202.4,127.6c6,12.9,30.7,13.6,82.8,2.2c42-9.2,65.1,1.3,69.8,10c1.5,2.9,0.6,4.4-0.6,5.5c-8,7.8-40,11-81.4,8
	c-20.3-1.5-28.3,7.5-39.3,19.9c-4.5,5.1-9.6,10.8-16.7,17.4c-15.3,14.3-15.5,26.6-12.9,34.5c5.1,15.3,24.3,25.5,54.2,28.8
	c32.3,3.6,48.4,18.5,50.6,47c0.9,11.7-2.6,17.9-7.1,25.7c-2.7,4.7-5.7,10.1-7.8,17c-5.8,19.4-2.2,52.2,24.2,64.4
	c3.9,1.8,7.8,2.6,11.8,2.6c21.3,0,42.7-22.7,52.7-33.3c1-1.1,1.9-2,2.6-2.8c6.1-6.3,8.2-19.3,11-39.9c1.2-8.9,2.5-19,4.2-22.9
	c3-6.9,23.4-25.4,37-36.2c1.7-1.3,2.7-3.3,2.8-5.5c0.1-2.1-0.7-4.2-2.3-5.7c-0.2-0.2-16-15.4-30-32.8c-20-25-22-36.7-20-39.8
	c4-6,7.3-6.9,9.4-7.2c10.6-1,28.7,15.7,41.5,28.5c12.9,12.9,33.4,13.7,60.8,2.5C503,214.2,504.8,210.8,504.2,207.3z"/>
<path class="st3" d="M504.2,207.3c-8.8-45-29.7-86.8-60.5-121c-30.7-33.9-69.9-59-113.3-72.3c-2-0.6-4.3-0.3-6.1,0.8
	c-4.7,2.9-8.9,5.6-12.6,8c29.6,12.5,56.8,30.8,80.2,54.2c40,40,65,91.1,72.1,146.4c10.1,0.4,22.1-2.2,35.8-7.8
	C503,214.2,504.8,210.8,504.2,207.3z"/>
<path class="st2" d="M237,496.7c-5.7-10.7-36-64.3-72.6-69.6c-1.4-0.2-2.6-0.4-3.7-4.3c-1.2-4.5-1.4-11.3-1.5-19.1
	c-0.3-16.5-0.7-37-10.9-56.8c-12.1-23.4-32-23.9-45.1-24.3c-13.1-0.3-14.1-0.9-14.1-8.6c0-30.9-33.6-58.6-78.1-64.4
	c-2.1-0.3-4.3,0.4-5.9,1.8c-1.6,1.4-2.5,3.5-2.5,5.6C3,319.9,26.4,380,68.7,426.4c42,46.1,99.2,74.9,161,81.2c0.3,0,0.5,0,0.8,0
	c2.8,0,5.4-1.6,6.7-4.2C238.3,501.4,238.2,498.8,237,496.7z"/>
<path class="st3" d="M185.2,147c-2.7-6.4-6.9-10.7-12.5-12.8c-11.5-4.4-25.2,2-38.4,8.1c-2.8,1.3-5.6,2.6-8.3,3.8
	c-23.2,9.9-38.9,49.2-29,72.5c2.7,6.4,7,10.7,12.7,12.9c3,1.2,6.1,1.7,9.3,1.7c10.3,0,21.8-5.1,33-10.1c2-0.9,4-1.8,5.9-2.6
	c11-4.7,20.5-16.4,26.2-32.1C189.4,173.4,189.8,157.9,185.2,147z"/>
<circle class="st4" cx="352.7" cy="106.6" r="38.4"/>
<path class="st5" d="M352.8,2.8C295.5,2.8,249,49.4,249,106.6c0,35.4,16.8,73.4,49.9,112.9c24.3,29,48.3,47.7,49.3,48.5
	c1.3,1,2.9,1.6,4.5,1.6s3.2-0.5,4.5-1.6c1-0.8,25-19.5,49.3-48.5c33.1-39.5,49.9-77.5,49.9-112.9C456.5,49.4,410,2.8,352.8,2.8z
	 M391.2,106.6c0,21.2-17.2,38.4-38.4,38.4s-38.4-17.2-38.4-38.4s17.2-38.4,38.4-38.4C374,68.2,391.2,85.4,391.2,106.6z"/>
<path class="st6" d="M352.8,2.8c-5.8,0-11.6,0.5-17.1,1.4c49.1,8.2,86.6,51,86.6,102.3c0,35.4-16.8,73.4-49.9,112.9
	c-13.7,16.4-27.3,29.4-36.7,37.9c7.3,6.5,12.1,10.3,12.6,10.6c1.3,1,2.9,1.6,4.5,1.6s3.2-0.5,4.5-1.6c1-0.8,25-19.5,49.3-48.5
	c33.1-39.5,49.9-77.5,49.9-112.9C456.5,49.4,410,2.8,352.8,2.8z"/>
</svg>
