<?xml version="1.0" encoding="utf-8"?>
<!-- Generator: Adobe Illustrator 21.0.0, SVG Export Plug-In . SVG Version: 6.00 Build 0)  -->
<svg version="1.1" id="Capa_1" xmlns="http://www.w3.org/2000/svg" xmlns:xlink="http://www.w3.org/1999/xlink" x="0px" y="0px"
	 viewBox="0 0 31.4 23.6" style="enable-background:new 0 0 31.4 23.6;" xml:space="preserve">
<style type="text/css">
	.st0{fill:#FFFFFF;}
</style>
<path class="st0" d="M28.5,0h-1L15.7,9.3L3.9,0h-1C1.3,0,0,1.3,0,2.9v17.7c0,1.6,1.3,2.9,2.9,2.9h1V5.2l11.8,9.1l11.8-9.1v18.4h1
	c1.6,0,2.9-1.3,2.9-2.9V2.9C31.4,1.3,30.1,0,28.5,0z"/>
<path class="st0" d="M28.7,2.9H2.8c-0.8,0-1.4-0.6-1.4-1.4S2.1,0,2.8,0h25.9c0.8,0,1.4,0.6,1.4,1.4S29.5,2.9,28.7,2.9z"/>
</svg>
