<?xml version="1.0" encoding="utf-8"?>
<!-- Generator: Adobe Illustrator 21.0.0, SVG Export Plug-In . SVG Version: 6.00 Build 0)  -->
<svg version="1.1" id="Layer_1" xmlns="http://www.w3.org/2000/svg" xmlns:xlink="http://www.w3.org/1999/xlink" x="0px" y="0px"
	 viewBox="0 0 496 496" style="enable-background:new 0 0 496 496;" xml:space="preserve">
<style type="text/css">
	.st0{fill:#FFFFFF;}
</style>
<g>
	<g>
		<rect id="SVGCleanerId_0" x="16" y="168.7" class="st0" width="96" height="304"/>
	</g>
	<g>
		<rect id="SVGCleanerId_0_1_" x="16" y="168.7" class="st0" width="96" height="304"/>
	</g>
</g>
<g>
	<rect id="SVGCleanerId_0_2_" x="16" y="168.7" class="st0" width="96" height="304"/>
</g>
<path class="st0" d="M16,340.7c24,9.6,56,17.7,96,23.9V168.7H16V340.7z"/>
<path class="st0" d="M16,207.9c24,9.6,56,17.7,96,23.9v-63.1H16V207.9z"/>
<path class="st0" d="M374.9,164.9c-55.4,0-94.9,30-94.9,51v-47.2H168.2c1.4,24,0,304,0,304H280V308.4c0-9.2-2-18.4,0.8-25
	c7.5-18.4,21.5-37.5,50.4-37.5c37.7,0,52.9,28.3,52.9,69.8v157.1h112V303.9C496,209,443.6,164.9,374.9,164.9z"/>
<path class="st0" d="M374.9,164.9c-55.4,0-94.9,30-94.9,51v-47.2H168.2c1.4,24,0,304,0,304H280V308.4c0-9.2-2-18.4,0.8-25
	c7.5-18.4,21.5-37.5,50.4-37.5c37.7,0,52.9,28.3,52.9,69.8v157.1h112V303.9C496,209,443.6,164.9,374.9,164.9z"/>
<path class="st0" d="M374.9,164.9c-55.4,0-94.9,30-94.9,51v-47.2H168.2c0.8,16,0.7,121.3,0.4,204.6c34.6,3.8,71.4,5.7,111.4,5.8
	v-70.7c0-9.2,0.2-11,0.2-11c0-28.9,22.1-51.5,50.9-51.5c37.7,0,52.9,28.3,52.9,69.8v57.8c40-4.2,78-10.6,112-18.8v-50.8
	C496,209,443.6,164.9,374.9,164.9z"/>
<g>
	<path class="st0" d="M374.9,164.9c-55.4,0-94.9,30-94.9,51v-47.2H168.2c0.4,8,0.6,35.3,0.6,72.1c35.2,3.9,72.2,5.8,110.2,5.8
		c72.1,0,140.9-7.6,201.1-20.8C459,184.7,420.7,164.9,374.9,164.9z"/>
	<path class="st0" d="M59.1,23.3C23.4,23.3,0,45.8,0,76c0,29.7,22.7,52.7,57.7,52.7h0.7c36.3,0,59-23.1,59-52.8
		C116.7,45.7,94.7,23.3,59.1,23.3z"/>
</g>
<path class="st0" d="M59.1,52.1C23.4,52.1,0,45.8,0,76c0,29.7,22.7,52.7,57.7,52.7h0.7c36.3,0,59-23.1,59-52.8
	C116.7,45.7,94.7,52.1,59.1,52.1z"/>
<path class="st0" d="M59.1,96C23.4,96,0,66.6,0,76c0,29.7,22.7,52.7,57.7,52.7h0.7c36.3,0,59-23.1,59-52.8
	C117.1,66.6,94.2,96,59.1,96z"/>
</svg>
