<?xml version="1.0" encoding="utf-8"?>
<!-- Generator: Adobe Illustrator 21.0.0, SVG Export Plug-In . SVG Version: 6.00 Build 0)  -->
<svg version="1.1" id="Layer_1" xmlns="http://www.w3.org/2000/svg" xmlns:xlink="http://www.w3.org/1999/xlink" x="0px" y="0px"
	 viewBox="0 0 504 504" style="enable-background:new 0 0 504 504;" xml:space="preserve">
<style type="text/css">
	.st0{fill:#FFFFFF;}
</style>
<path id="SVGCleanerId_0" class="st0" d="M490.1,52.6c-20,12.1-42.1,21-65.7,25.7c-18.8-20.6-45.7-33.5-75.5-33.5
	c-57.1,0-103.4,47.5-103.4,106c0,8.3,0.9,16.4,2.7,24.1c-86-4.4-162.1-46.6-213.1-110.8c-8.9,15.7-14,34-14,53.4
	c0,36.8,18.1,69.2,45.9,88.2c-16.9-0.5-31-5.3-47-13.2v1.3c0,51.4,35.8,94.2,83.1,103.9c-8.7,2.5-17.8,3.7-27.2,3.7
	c-6.6,0-13.1-0.6-19.4-1.9c13.2,42.1,51.3,72.8,96.6,73.6c-35.4,28.5-80,45.4-128.4,45.4c-8.3,0-16.6-0.5-24.7-1.5
	c45.8,30,100.2,47.6,158.5,47.6c190.2,0,294.2-161.5,294.2-301.7c0-4.6-0.1-9.2-0.3-13.7c20.2-15,37.7-33.6,51.6-54.9
	c-18.5,8.4-38.5,14.1-59.4,16.7C466,98.2,482.4,77.4,490.1,52.6z"/>
<g>
	<path id="SVGCleanerId_0_1_" class="st0" d="M490.1,52.6c-20,12.1-42.1,21-65.7,25.7c-18.8-20.6-45.7-33.5-75.5-33.5
		c-57.1,0-103.4,47.5-103.4,106c0,8.3,0.9,16.4,2.7,24.1c-86-4.4-162.1-46.6-213.1-110.8c-8.9,15.7-14,34-14,53.4
		c0,36.8,18.1,69.2,45.9,88.2c-16.9-0.5-31-5.3-47-13.2v1.3c0,51.4,35.8,94.2,83.1,103.9c-8.7,2.5-17.8,3.7-27.2,3.7
		c-6.6,0-13.1-0.6-19.4-1.9c13.2,42.1,51.3,72.8,96.6,73.6c-35.4,28.5-80,45.4-128.4,45.4c-8.3,0-16.6-0.5-24.7-1.5
		c45.8,30,100.2,47.6,158.5,47.6c190.2,0,294.2-161.5,294.2-301.7c0-4.6-0.1-9.2-0.3-13.7c20.2-15,37.7-33.6,51.6-54.9
		c-18.5,8.4-38.5,14.1-59.4,16.7C466,98.2,482.4,77.4,490.1,52.6z"/>
</g>
<g>
	<path class="st0" d="M504,94.6c-18.5,8.4-38.5,14.1-59.4,16.7c21.4-13.1,37.8-33.9,45.5-58.6c-20,12.1-42.1,21-65.7,25.7
		c-18.8-20.6-45.7-33.5-75.5-33.5c-57.1,0-103.4,47.5-103.4,106c0,8.3,0.9,16.4,2.7,24.1c-0.1,0-0.1,0-0.1,0l155.4,155.5
		c32.4-51.3,49.2-111,49.2-167.3c0-4.6-0.1-9.2-0.3-13.7C472.6,134.5,490.2,115.9,504,94.6z"/>
	<path class="st0" d="M153,373.4c-35.4,28.4-80,45.3-128.3,45.3c-8.3,0-16.6-0.5-24.7-1.5c45.8,30,100.2,47.6,158.5,47.6
		c27.3,0,52.8-3.4,76.4-9.5L153,373.4z"/>
</g>
<g>
	<path class="st0" d="M490.1,52.6c-20,12.1-42.1,21-65.7,25.7c-18.8-20.6-45.7-33.5-75.5-33.5c-57.1,0-103.4,47.5-103.4,106
		c0,8.3,0.9,16.4,2.7,24.1c-70.7-3.6-134.8-32.9-183.8-78.9c50.2,53.1,119.2,87.2,196,91.2c-1.8-7.8-2.7-15.8-2.7-24.1
		c0-58.6,46.3-106,103.4-106c29.8,0,56.7,12.9,75.5,33.5"/>
	<path class="st0" d="M89.2,300.7c-4.3,0.6-8.8,0.9-13.2,0.9c-6.6,0-13.2-0.6-19.5-1.9c6.1,19.5,17.6,36.5,32.6,49.2
		c-9-10.7-16.1-23.2-20.4-37"/>
</g>
<path class="st0" d="M486.4,117.6c6.3-7.3,12.3-14.9,17.6-23c-7.5,3.4-15.4,6.3-23.4,8.8"/>
<g>
	<path class="st0" d="M10.4,420.6c-2.2-0.3-5.6-0.7-8-1.8c6.9,4.5,12.7,8,20,11.9c4.8,0.3,9.7,1.6,14.5,1.6
		c48.4,0,93-20.3,128.4-44.3c-0.1,0-0.1,0-0.2,0C118.8,412,66.9,427.7,10.4,420.6z"/>
	<path class="st0" d="M58.9,199.4c-15.8-18.6-25.5-42.9-25.5-69.6c0-18.9,4.8-36.6,13.3-52c-4-4.4-7.8-8.9-11.5-13.6
		c-8.9,15.7-14,34-14,53.4C21.1,150.5,35.8,179.9,58.9,199.4z"/>
	<path class="st0" d="M67,205.8c-16-0.9-31-5.7-47-13.2v1.3c0,32.9,14.7,62.3,37.6,81.7C41.8,257,36,232.8,36,206.2V204"/>
	<path class="st0" d="M211.2,122.4c0,0,15.7-48-71.4-72.4c0,0,7.4,39.4,29.8,58.7C194.1,129.7,211.2,122.4,211.2,122.4z"/>
	<path class="st0" d="M229,103c0,0,18.1-10.6-2.2-42.2c0,0-8.6,14.3-7,26.5C221.6,100.5,229,103,229,103z"/>
	<path class="st0" d="M152.6,127.6c0,0-19.1,8.7-33.3-26.1c0,0,16.6,1.2,25.7,9.5C154.8,120.2,152.6,127.6,152.6,127.6z"/>
</g>
<g>
	<path class="st0" d="M232.9,162.9c0,0-19.6,7.4-31.4-28.2c0,0,16.5,2.3,25,11.2C235.6,155.7,232.9,162.9,232.9,162.9z"/>
	<circle class="st0" cx="182.3" cy="140" r="7.8"/>
	<circle class="st0" cx="132.4" cy="80.3" r="2.9"/>
	<circle class="st0" cx="194.5" cy="40.6" r="1.5"/>
</g>
<circle class="st0" cx="200.4" cy="63.1" r="5.4"/>
</svg>
